<svg width="30" height="30" viewBox="0 0 30 30" fill="none" xmlns="http://www.w3.org/2000/svg">
<path fill-rule="evenodd" clip-rule="evenodd" d="M0 5C0 2.23858 2.23858 0 5 0H25C27.7614 0 30 2.23858 30 5V25C30 27.7614 27.7614 30 25 30H5C2.23858 30 0 27.7614 0 25V5ZM10 6.5C10 5.67157 10.6716 5 11.5 5H22.5C23.3284 5 24 5.67157 24 6.5C24 7.32843 23.3284 8 22.5 8H11.5C10.6716 8 10 7.32843 10 6.5ZM11.5 11C10.6716 11 10 11.6716 10 12.5C10 13.3284 10.6716 14 11.5 14H22.5C23.3284 14 24 13.3284 24 12.5C24 11.6716 23.3284 11 22.5 11H11.5ZM10 24.5C10 23.6716 10.6716 23 11.5 23H22.5C23.3284 23 24 23.6716 24 24.5C24 25.3284 23.3284 26 22.5 26H11.5C10.6716 26 10 25.3284 10 24.5ZM11.5 17C10.6716 17 10 17.6716 10 18.5C10 19.3284 10.6716 20 11.5 20H22.5C23.3284 20 24 19.3284 24 18.5C24 17.6716 23.3284 17 22.5 17H11.5ZM8 6.5C8 7.32843 7.32843 8 6.5 8C5.67157 8 5 7.32843 5 6.5C5 5.67157 5.67157 5 6.5 5C7.32843 5 8 5.67157 8 6.5ZM6.5 14C7.32843 14 8 13.3284 8 12.5C8 11.6716 7.32843 11 6.5 11C5.67157 11 5 11.6716 5 12.5C5 13.3284 5.67157 14 6.5 14ZM8 18.5C8 19.3284 7.32843 20 6.5 20C5.67157 20 5 19.3284 5 18.5C5 17.6716 5.67157 17 6.5 17C7.32843 17 8 17.6716 8 18.5ZM6.5 26C7.32843 26 8 25.3284 8 24.5C8 23.6716 7.32843 23 6.5 23C5.67157 23 5 23.6716 5 24.5C5 25.3284 5.67157 26 6.5 26Z" fill="white"/>
</svg>
